<svg xmlns="http://www.w3.org/2000/svg" width="224.486" height="70" viewBox="0 0 224.486 70">
  <g id="Group_59649" data-name="Group 59649" transform="translate(-672.969 -307.038)">
    <path id="Path_80721" data-name="Path 80721" d="M25.4-27.579l-2.175-1.913A10.336,10.336,0,0,0,25.247-35.5,10.752,10.752,0,0,0,14.433-45.962,10.752,10.752,0,0,0,3.618-35.5,10.752,10.752,0,0,0,14.433-25.038a10.812,10.812,0,0,0,5.929-1.734L22.8-24.619ZM20.689-35.5a6.775,6.775,0,0,1-.745,3.139l-2.294-2L15.058-31.4l2.026,1.764a6.486,6.486,0,0,1-2.651.568A6.209,6.209,0,0,1,8.176-35.5a6.209,6.209,0,0,1,6.256-6.427A6.209,6.209,0,0,1,20.689-35.5Zm25.8,10.044-8.312-20.3H35.5l-8.312,20.3h3.069l2.026-5.082h9.116l2.026,5.082Zm-6.137-7.682H33.321l3.515-9.3Zm19.931-9.8v-2.6H44.731v2.6h6.346v17.487h2.86V-42.943ZM77.741-25.456l-8.312-20.3H66.747l-8.312,20.3H61.5l2.026-5.082h9.116l2.026,5.082ZM71.6-33.138H64.572l3.515-9.3Zm23.8,7.682-6.673-9.506a5.277,5.277,0,0,0,3.545-5.022c0-2.361-1.728-5.56-6.346-5.56h-5.72v20.087h2.86v-8.967h2.622l6.256,8.967ZM89.24-40.073c0,1.614-1.013,3.049-3.664,3.049h-2.5v-5.919h2.473C87.87-42.943,89.24-41.837,89.24-40.073ZM17.233-.918V-4.924H8.5V-21.006H4.214V-.918Zm15.581,0v-2.6h-9.8v-6.875h7.657v-2.6H23.013v-5.41h9.8v-2.6H20.153V-.918Zm20.795,0L45.3-21.215H42.616L34.3-.918h3.069L39.4-6h9.116L50.54-.918ZM47.472-8.6H40.441l3.515-9.3Zm25.77-2.361c0-6.008-5.005-10.044-10.814-10.044H56.082V-.918h6.495C68.505-.918,73.242-5.073,73.242-10.962Zm-3.039,0c0,4.065-2.741,7.443-7.925,7.443H58.942V-18.405h3.545A7.478,7.478,0,0,1,70.2-10.962ZM92.13-.918l-6.673-9.506A5.277,5.277,0,0,0,89-15.446c0-2.361-1.728-5.56-6.346-5.56h-5.72V-.918H79.8V-9.886h2.622L88.674-.918ZM85.963-15.535c0,1.614-1.013,3.049-3.664,3.049H79.8v-5.919h2.473C84.593-18.405,85.963-17.3,85.963-15.535Zm20.5,8.848c0-6.457-9.593-5.919-9.593-9.476,0-1.016.655-2.541,2.949-2.541a4.444,4.444,0,0,1,3.962,2.511l2.234-1.793a7.216,7.216,0,0,0-6.256-3.438c-3.366,0-5.958,2.242-5.958,5.56,0,6.1,9.593,5.141,9.593,9.506A3.3,3.3,0,0,1,99.936-3.22c-3.009,0-4.23-2.122-4.886-4.005L92.488-5.611c1.43,3.079,3.456,5.052,7.627,5.052A6.2,6.2,0,0,0,106.46-6.688ZM127.046-.918V-21.006h-2.86v8.011h-11.44v-8.011h-2.86V-.918h2.86v-9.476h11.44V-.918Zm7.15,0V-21.006h-2.86V-.918Zm17.279-14.109c0-2.87-1.877-5.978-6.942-5.978h-6.048V-.918h2.86V-8.929h3.367C148.109-8.929,151.476-10.872,151.476-15.027Zm-3.1.06c0,2.242-1.579,3.438-3.933,3.438h-3.1v-6.875h2.979C147.454-18.405,148.377-16.7,148.377-14.967ZM21.136,9.391V4.668a16.221,16.221,0,0,0-6.644-1.554A10.612,10.612,0,0,0,3.618,13.576,10.8,10.8,0,0,0,14.462,24.038a13.982,13.982,0,0,0,6.644-1.883V17.342A9.583,9.583,0,0,1,14.79,20a6.429,6.429,0,1,1-.03-12.853A11.948,11.948,0,0,1,21.136,9.391ZM37.164,23.619v-2.6h-9.8V14.144h7.657v-2.6H27.362V6.133h9.8v-2.6H24.5V23.619Zm21.54,0V3.532h-2.86V19.345L43.331,3.532h-2.86V23.619h2.86V7.807L55.843,23.619ZM76.638,6.133v-2.6H61.087v2.6h6.346V23.619h2.86V6.133ZM94.007,23.619l-6.673-9.506a5.277,5.277,0,0,0,3.545-5.022c0-2.361-1.728-5.56-6.346-5.56h-5.72V23.619h2.86V14.652h2.622l6.256,8.967ZM87.84,9c0,1.614-1.013,3.049-3.664,3.049h-2.5V6.133h2.473C86.47,6.133,87.84,7.239,87.84,9Zm21.152,14.617v-2.6h-9.8V14.144h7.657v-2.6H99.191V6.133h9.8v-2.6H96.331V23.619Z" transform="translate(745.98 353)" fill="#fff"/>
    <path id="Path_80352" data-name="Path 80352" d="M0,75.223c.723-2.212,1.428-4.406,3.214-6.086a10.251,10.251,0,0,1,7.173-2.982q24.062-.056,48.125,0A10.341,10.341,0,0,1,68.9,76.508c.054,13.321.017,26.643.017,40.3-3.679-5.268-8.724-8.175-14.4-10.036-3.438-1.128-6.967-2-10.492-2.834-7.528-1.777-15.1-3.369-22.132-6.781A39.668,39.668,0,0,1,6.08,83.727a1.275,1.275,0,0,0-.988-.628C6.35,85.017,7.525,87,8.881,88.843,16.233,98.86,26.1,104.62,38.268,107c7.459,1.461,14.782,3.692,22.075,5.885,2.368.712,4.513,2.293,6.632,3.673a4.346,4.346,0,0,1,1.968,4.353c-.2,1.992-.015,4.033-.323,6a9.933,9.933,0,0,1-9.783,8.341q-24.062.028-48.124.009A10.193,10.193,0,0,1,.336,127.158,3.683,3.683,0,0,0,0,126.469V75.223m13.333,27.17c8.608,8.506,19.086,11.8,31.19,10.087-5.34-1.267-10.778-2.2-15.974-3.888-5.258-1.705-10.277-4.153-15.216-6.2m24.009-3.607c-7.763-4.347-15.386-8.4-21.348-15.228,2.548,7.423,15.041,16.417,21.348,15.228m6.564,17.363a57.251,57.251,0,0,1-18.785-1.874,19.759,19.759,0,0,0,18.785,1.874m2.987,2.233-13.717,2.894a16.124,16.124,0,0,0,13.717-2.894m-5.3,7.936c2.984-.472,7.259-4.416,7.614-6.91l-7.614,6.91" transform="translate(672.969 241.546)" fill="#fff"/>
  </g>
</svg>
